<svg width="77.466" height="92" viewBox="290 0 77.466 92" fill="none" xmlns="http://www.w3.org/2000/svg">
  <path d="M329.418 8L329.919 11L330.92 13L331.921 11L332.422 8L334.424 5L336.928 3L340.432 1L343.936 0H351.947L356.452 1L358.956 2.5L361.459 5L363.461 8L364.963 11L365.964 14.5L366.465 18L366.966 21.5L367.466 25.5L343.436 33.5L330.92 39L317.403 33.5L294.374 25.5L293.873 22L294.374 18L295.375 14L296.877 10L299.38 6L301.382 4L303.886 2L309.393 0H316.402L321.408 1L324.412 3L326.414 5L329.418 8Z" fill="#ED7BA4"/>
  <path d="M294.374 25.5L313.398 31.5L322.409 35L330.92 39L308.892 53L305.888 51L302.884 48L300.882 44.5L298.879 41L297.377 38.5L295.875 35L294.874 30.5L294.374 25.5Z" fill="#BD509B"/>
  <path d="M367.466 25.5L348.442 31.5L339.431 35L330.92 39L352.948 53L355.952 51L358.956 48L360.958 44.5L362.961 41L364.463 38.5L365.964 35L366.966 30.5L367.466 25.5Z" fill="#BD509B"/>
  <path d="M330.92 91.9999L326.915 80.4999L321.909 70.9999L315.901 61.4999L308.892 53.0001L330.92 38.9999L352.948 53L346.44 61.4999L339.931 70.9999L335.426 80.4999L330.92 91.9999Z" fill="#8F418D"/>
</svg>
