<svg width="661" height="512" viewBox="0 0 661 512" fill="none" xmlns="http://www.w3.org/2000/svg">
<path d="M215.273 133L218.277 132H235.299H240.305L244.811 133L250.318 135L253.822 136L256.826 137L262.333 137.5V141L260.831 144.5L258.328 149L255.324 153.5L253.321 156.5L250.818 158.5L247.314 159.5L243.809 160H238.803H234.297L230.292 159.5L226.287 158.5L224.285 156L221.781 153.5L219.779 151.5L217.776 149.5L215.273 147L208.765 140.5L205.26 135.5L206.262 135L209.766 134.5L215.273 133Z" fill="#46ACCA"/>
<path d="M245.311 117L250.318 113L254.323 108L257.827 102.5L261.332 95L262.333 117L263.835 119.5L265.337 121.5L266.839 122.5L268.341 123.5L268.841 125L268.341 126.5L266.839 127.5L264.335 130L263.334 131V136L262.333 137.5L256.826 137L253.822 136L251.82 135.5L249.316 135L247.314 134L244.811 133L240.305 132.5L235.299 132H218.277L222.783 129.5L225.286 128.5L227.789 127.5L231.294 126.5L233.296 125.25L235.299 124.5L236.801 123.5L237.802 123L238.803 122.5L240.305 121.5L241.807 120.5L243.309 119L245.311 117Z" fill="#46ACCA"/>
<path d="M160.704 105.5L185.736 106L194.747 107.5L203.258 110L208.765 113L213.771 117L214.773 123L215.273 125.5L213.771 127L208.765 130L203.759 132L198.752 134L192.745 136L188.239 137H180.229L177.726 134.5L173.72 130L169.715 125.5L166.211 119.5L163.207 113.5L160.704 105.5Z" fill="#102B4C"/>
<path d="M233.296 101L238.803 95.5L244.811 90.5L253.321 82L255.825 79.5L258.828 77L260.831 76L263.334 75.5V82.701L261.832 87L258.828 93L256.826 97L254.823 100.5L251.82 104.5L248.816 108L246.813 110L244.31 112L240.305 115.5L235.799 118.5L231.294 120.5L226.788 122.5L223.283 124L218.778 125.5L213.771 127L214.272 122.5L213.771 117.5L218.277 115.5L221.281 112.5L224.785 109L233.296 101Z" fill="#1B3C67"/>
<path d="M232.295 74L234.798 58.5L238.803 43L246.313 48L253.321 55L257.327 60L259.83 64.5L261.832 69L263.334 74V75V75.5L260.831 76L258.828 77L255.324 80L248.315 87L244.811 90.5L240.806 94L231.794 102.5L223.784 110L219.779 114L218.277 115.5L213.771 117.5L215.774 114L217.776 111L221.281 106L222.783 103L223.784 100L224.785 97L225.787 94L227.789 88L229.792 81L231.294 77L231.794 75.5L232.295 74Z" fill="#256A93"/>
<path d="M188.239 90L192.244 86L196.249 83L200.755 79.5L205.26 77L212.77 75L216.274 74H218.778H232.295L230.292 80.5L228.79 86L227.789 89L226.788 92L224.785 97.5L222.783 103.5L219.779 108.5L217.276 112L214.773 116L213.771 117.5L211.268 115L207.764 112.5L204.259 111L191.243 107L188.239 106.5L175.222 106L160.704 105.5L188.239 90Z" fill="#1B3C67"/>
<path d="M167.713 73L233.797 47.5L229.792 52.5L224.785 57.5L214.773 67.5L205.26 77L199.753 80.5L194.247 85L188.74 90L178.727 96L160.704 105.5L159.703 100V97.5L160.203 95L160.704 92.5L161.705 89.5L162.206 87L163.207 84L164.208 81L164.959 79L165.71 77L167.212 73H167.713Z" fill="#256A93"/>
<path d="M222.282 60L230.292 51.5L233.797 47.5L167.713 73H167.212L169.215 68.5L171.217 64L174.221 59.5L176.724 56L179.728 52.5L183.233 49L186.737 46L190.742 43.5L194.747 41.5L199.253 39.5L204.76 38L208.264 37.5L213.771 37H218.778L223.784 37.5L227.789 38L231.294 39L233.797 40L235.799 41L237.301 42L238.803 43L235.299 59.5L232.295 74H217.776L210.267 76L205.261 77L210.267 72L222.282 60Z" fill="#46ACCA"/>
<path d="M147.687 127L159.703 117.5L161.205 121L163.207 124L165.21 127.5L167.212 131L169.715 134L170.717 136L170.216 138.5L169.715 141L168.213 144L166.712 147.5L165.21 150L162.707 155.5L159.202 160L148.188 150L140.679 144.5L131.166 138L147.687 127Z" fill="#1B3C67"/>
<path d="M129.164 151V146.5V140L131.166 138L149.189 150L159.202 160L154.196 167.5L149.69 173L144.183 179.5L136.673 186.5L129.164 193L121.654 198.5L120.152 199.5L122.155 186.5L124.658 175L126.661 163L129.164 151Z" fill="#102B4C"/>
<path d="M102.13 160L129.164 140V151L128.663 156L125.659 171.5L124.158 179L122.155 187L120.152 199.5L116.147 202.5L111.141 205.5L100.628 211L87.1106 216L84.1067 216.5H81.1029V215L86.1093 210L90.1144 205L93.6188 199L96.6226 192L99.1258 185L100.628 177L101.629 168L102.13 160Z" fill="#1B3C67"/>
<path d="M113.144 124.5L117.649 120L122.656 116L129.665 112L138.676 110L149.189 110.5L155.197 112.5L158.201 114.5L159.703 117.5L149.189 126.5L137.174 134L120.152 147.5L102.13 160L102.63 150.5L105.133 141L109.639 130.5L113.144 124.5Z" fill="#256A93"/>
<path d="M216.274 175.5L192.268 202.684L166.211 228.5L190.742 160.5L216.274 175.5Z" fill="#256A93"/>
<path d="M190.742 160.5L178.727 195L166.211 228.5L141.179 211L150.691 200.5L165.21 186L190.742 160.5Z" fill="#102B4C"/>
<path d="M216.274 175.5L212.77 195L206.762 214.5L202.757 228.5L198.252 239L197.751 240L192.244 247.5L177.225 269.5L156.699 295.5L160.203 264.5L166.211 228.5L175.723 218.5L192.244 202L216.274 175.5Z" fill="#102B4C"/>
<path d="M216.274 175.5L223.283 206L226.788 220L228.79 229L230.292 235.5L231.794 244L198.252 239L202.257 229L212.269 196L216.274 175.5Z" fill="#46ACCA"/>
<path d="M198.252 239L231.794 244L197.751 296.5L175.222 333L162.206 351L149.189 367L149.69 362L150.128 358L151.442 348.75L153.194 331L156.699 295.5L198.252 239Z" fill="#1B3C67"/>
<path d="M171.217 338L200.755 291L226.287 252.5L231.794 244L225.787 322.5L205.761 352L125.159 498L144.183 431L171.217 338Z" fill="#256A93"/>
<path d="M171.217 338.5L139.177 449L128.663 486L124.158 501.5L118.651 498.5L113.144 495.5L101.128 489L90.1144 483L80.1017 476.5L125.659 407.5L147.187 369.5L171.217 338.5Z" fill="#46ACCA"/>
<path d="M157.2 292.5L149.69 366L137.675 371.5L124.533 376.375L99.3761 386.75L74.5947 398L44.0559 409.5L76.0966 381.5L104.132 352.5L129.79 323.5L143.182 308L149.69 300L157.2 292.5Z" fill="#102B4C"/>
<path d="M137.675 371.5L149.69 366L109.639 399.5L90.1145 416.5L67.4717 431.532L39.0497 449L32.5413 443.5L25.5324 437.5L18.5235 430.5L13.5171 423.5L29.0369 416.5L44.0559 409.5L64.5821 401L94.1196 389L122.656 377L137.675 371.5Z" fill="#1B3C67"/>
<path d="M149.69 366L149.189 367L147.187 369.5L131.166 398L116.648 423L80.1017 476.5L58.5743 463.5L39.0495 449L57.0724 438L90.615 416L116.648 393L148.188 367L149.69 366Z" fill="#256A93"/>
<path d="M225.286 323.5L221.781 342L217.776 364L210.267 402L200.254 414.5L185.736 431.5L164.709 455L124.158 501.5L125.159 498L173.22 411L196.75 367.5L205.26 352.5L207.764 349L216.775 333.5L225.286 323.5Z" fill="#46ACCA"/>
<path d="M210.267 402L178.727 507.5L165.71 510.5H151.693L137.675 507.5L124.158 501.5L165.21 454L210.267 402Z" fill="#79E9F1"/>
<path d="M210.267 402V420L213.771 434.5L217.776 450L221.781 461.5L232.795 482L244.31 505L236.3 501.5L227.288 500H210.267L196.249 501.5L178.727 507.5L210.267 402Z" fill="#A4EDEB"/>
<path d="M226.287 316.5L242.808 356L246.313 364L247.814 392.5L249.316 421V464V506L244.31 505L241.306 499.5L238.302 493L231.794 480L223.784 466L220.28 459L217.776 450.5L209.766 422V402.5L216.775 368.5L226.287 316.5Z" fill="#79E9F1"/>
<path d="M246.313 364L259.329 386L271.845 409L296.376 454.5L303.886 468L311.896 482L318.905 496L325.413 512L311.896 506L298.879 501.5L283.86 500H269.842L259.329 501.5L249.316 506L246.313 364Z" fill="#A4EDEB"/>
<path d="M222.282 160L220.28 166.5L216.274 175.5L211.72 173.194L190.742 160.5L192.745 156.5L194.747 152.5L201.756 138L202.757 138L203.258 138.5L205.26 141.5L206.762 144L210.267 148.5L213.771 153L217.776 156.5L220.029 158.25L222.282 160Z" fill="#46ACCA"/>
<path d="M112.643 245L141.179 211L166.211 228.5L158.201 239.5L145.685 254L124.158 278.5L94.1195 290.5L62.0788 300L74.5947 287.5L87.1106 274L112.643 245Z" fill="#46ACCA"/>
<path d="M31.0394 317L62.0788 300L92.6175 291L123.156 279L113.144 291L101.629 302L90.1144 313L78.5997 322.5L69.0877 329.5L58.5743 336L48.5616 340.5L39.0496 343H27.5349H22.028L17.5222 341.5L12.0152 339.5L7.00889 335.5L2.50318 330.5L1.00127 327.5L0 324L7.00889 323.5L12.0152 322.5L17.5222 321.5L25.0318 319L31.0394 317Z" fill="#72D7EB"/>
<path d="M216.275 175.5L223.784 180.5L230.793 186.5L237.301 192.5L243.309 199L249.817 205.5L255.324 212.5L261.332 220L265.337 227L231.794 244L216.275 175.5Z" fill="#72D7EB"/>
<path d="M325.413 316.5L264.836 281.5L231.794 244L265.337 227L281.858 249L296.877 271.5L311.395 293.5L318.905 304.5L325.413 316.5Z" fill="#79E9F1"/>
<path d="M264.836 281.5L325.413 316.5L328.917 321.5L345.939 355.5L350.945 369.5L351.947 380.5L351.947 386L349.944 391L347.441 394L341.433 394.5L336.928 389L333.924 384L326.915 370.5L321.909 360L315.901 346L264.836 281.5Z" fill="#46ACCA"/>
<path d="M445.727 133L442.723 132H425.701H420.695L416.189 133L410.682 135L407.178 136L404.174 137L398.667 137.5V141L400.169 144.5L402.672 149L405.676 153.5L407.679 156.5L410.182 158.5L413.686 159.5L417.191 160H422.197H426.703L430.708 159.5L434.713 158.5L436.715 156L439.219 153.5L441.221 151.5L443.224 149.5L445.727 147L452.235 140.5L455.74 135.5L454.738 135L451.234 134.5L445.727 133Z" fill="#ED7BA4"/>
<path d="M415.689 117L410.682 113L406.677 108L403.173 102.5L399.668 95L398.667 117L397.165 119.5L395.663 121.5L394.161 122.5L392.659 123.5L392.159 125L392.659 126.5L394.161 127.5L396.665 130L397.666 131V136L398.667 137.5L404.174 137L407.178 136L409.18 135.5L411.684 135L413.686 134L416.189 133L420.695 132.5L425.701 132H442.723L438.217 129.5L435.714 128.5L433.211 127.5L429.706 126.5L427.704 125.25L425.701 124.5L424.199 123.5L423.198 123L422.197 122.5L420.695 121.5L419.193 120.5L417.691 119L415.689 117Z" fill="#ED7BA4"/>
<path d="M500.296 105.5L475.264 106L466.253 107.5L457.742 110L452.235 113L447.229 117L446.227 123L445.727 125.5L447.229 127L452.235 130L457.241 132L462.248 134L468.255 136L472.761 137H480.771L483.274 134.5L487.28 130L491.285 125.5L494.789 119.5L497.793 113.5L500.296 105.5Z" fill="#EB897A"/>
<path d="M427.704 101L422.197 95.5L416.189 90.5L407.679 82L405.175 79.5L402.172 77L400.169 76L397.666 75.5V82.701L399.168 87L402.172 93L404.174 97L406.177 100.5L409.18 104.5L412.184 108L414.187 110L416.69 112L420.695 115.5L425.201 118.5L429.706 120.5L434.212 122.5L437.717 124L442.222 125.5L447.229 127L446.728 122.5L447.229 117.5L442.723 115.5L439.719 112.5L436.215 109L427.704 101Z" fill="#EB897A"/>
<path d="M428.705 74L426.202 58.5L422.197 43L414.687 48L407.679 55L403.673 60L401.17 64.5L399.168 69L397.666 74V75V75.5L400.169 76L402.172 77L405.676 80L412.685 87L416.189 90.5L420.194 94L429.206 102.5L437.216 110L441.221 114L442.723 115.5L447.229 117.5L445.226 114L443.224 111L439.719 106L438.217 103L437.216 100L436.215 97L435.213 94L433.211 88L431.208 81L429.706 77L429.206 75.5L428.705 74Z" fill="#EB897A"/>
<path d="M472.761 90L468.756 86L464.751 83L460.245 79.5L455.74 77L448.23 75L444.726 74H442.222H428.705L430.708 80.5L432.21 86L433.211 89L434.212 92L436.215 97.5L438.217 103.5L441.221 108.5L443.724 112L446.227 116L447.229 117.5L449.732 115L453.236 112.5L456.741 111L469.757 107L472.761 106.5L485.778 106L500.296 105.5L472.761 90Z" fill="#FAAA92"/>
<path d="M493.287 73L427.203 47.5L431.208 52.5L436.215 57.5L446.227 67.5L455.74 77L461.246 80.5L466.753 85L472.26 90L482.273 96L500.296 105.5L501.297 100V97.5L500.797 95L500.296 92.5L499.295 89.5L498.794 87L497.793 84L496.792 81L496.041 79L495.29 77L493.788 73H493.287Z" fill="#FAAA92"/>
<path d="M438.718 60L430.708 51.5L427.203 47.5L493.287 73H493.788L491.785 68.5L489.783 64L486.779 59.5L484.276 56L481.272 52.5L477.767 49L474.263 46L470.258 43.5L466.253 41.5L461.747 39.5L456.24 38L452.736 37.5L447.229 37H442.222L437.216 37.5L433.211 38L429.706 39L427.203 40L425.201 41L423.699 42L422.197 43L425.701 59.5L428.705 74H443.224L450.733 76L455.74 77L450.733 72L438.718 60Z" fill="#FCBD9A"/>
<path d="M513.313 127L501.297 117.5L499.795 121L497.793 124L495.79 127.5L493.788 131L491.285 134L490.283 136L490.784 138.5L491.285 141L492.787 144L494.288 147.5L495.79 150L498.294 155.5L501.798 160L512.812 150L520.321 144.5L529.834 138L513.313 127Z" fill="#FAAA92"/>
<path d="M531.836 151V146.5V140L529.834 138L511.811 150L501.798 160L506.804 167.5L511.31 173L516.817 179.5L524.327 186.5L531.836 193L539.346 198.5L540.848 199.5L538.845 186.5L536.342 175L534.339 163L531.836 151Z" fill="#FCBD9A"/>
<path d="M558.87 160L531.836 140V151L532.337 156L535.341 171.5L536.842 179L538.845 187L540.848 199.5L544.853 202.5L549.859 205.5L560.372 211L573.889 216L576.893 216.5H579.897V215L574.891 210L570.886 205L567.381 199L564.377 192L561.874 185L560.372 177L559.371 168L558.87 160Z" fill="#FAAA92"/>
<path d="M547.856 124.5L543.351 120L538.344 116L531.335 112L522.324 110L511.811 110.5L505.803 112.5L502.799 114.5L501.297 117.5L511.811 126.5L523.826 134L540.848 147.5L558.87 160L558.37 150.5L555.867 141L551.361 130.5L547.856 124.5Z" fill="#EB897A"/>
<path d="M444.726 175.5L468.732 202.684L494.789 228.5L470.258 160.5L444.726 175.5Z" fill="#BD509B"/>
<path d="M470.258 160.5L482.273 195L494.789 228.5L519.821 211L510.309 200.5L495.79 186L470.258 160.5Z" fill="#5A2C6C"/>
<path d="M444.726 175.5L448.23 195L454.238 214.5L458.243 228.5L462.748 239L463.249 240L468.756 247.5L483.775 269.5L504.301 295.5L500.797 264.5L494.789 228.5L485.277 218.5L468.756 202L444.726 175.5Z" fill="#5A2C6C"/>
<path d="M444.726 175.5L437.717 206L434.212 220L432.21 229L430.708 235.5L429.206 244L462.748 239L458.743 229L448.731 196L444.726 175.5Z" fill="#ED7BA4"/>
<path d="M462.748 239L429.206 244L463.249 296.5L485.778 333L498.794 351L511.811 367L511.31 362L510.872 358L509.558 348.75L507.806 331L504.301 295.5L462.748 239Z" fill="#BD509B"/>
<path d="M489.783 338L460.245 291L434.713 252.5L429.206 244L435.213 322.5L455.239 352L535.841 498L516.817 431L489.783 338Z" fill="#8F418D"/>
<path d="M489.783 338.5L521.823 449L532.337 486L536.842 501.5L542.349 498.5L547.856 495.5L559.872 489L570.886 483L580.898 476.5L535.341 407.5L513.813 369.5L489.783 338.5Z" fill="#ED7BA4"/>
<path d="M503.801 292.5L511.31 366L523.325 371.5L536.467 376.375L561.624 386.75L586.405 398L616.944 409.5L584.903 381.5L556.868 352.5L531.21 323.5L517.818 308L511.31 300L503.801 292.5Z" fill="#5A2C6C"/>
<path d="M523.325 371.5L511.31 366L551.361 399.5L570.886 416.5L593.528 431.532L621.95 449L628.459 443.5L635.468 437.5L642.477 430.5L647.483 423.5L631.963 416.5L616.944 409.5L596.418 401L566.88 389L538.344 377L523.325 371.5Z" fill="#8F418D"/>
<path d="M511.31 366L511.811 367L513.813 369.5L529.834 398L544.352 423L580.898 476.5L602.426 463.5L621.95 449L603.928 438L570.385 416L544.352 393L512.812 367L511.31 366Z" fill="#BD509B"/>
<path d="M435.714 323.5L439.219 342L443.224 364L450.733 402L460.746 414.5L475.264 431.5L496.291 455L536.842 501.5L535.841 498L487.78 411L464.25 367.5L455.74 352.5L453.236 349L444.225 333.5L435.714 323.5Z" fill="#ED7BA4"/>
<path d="M450.733 402L482.273 507.5L495.29 510.5H509.307L523.325 507.5L536.842 501.5L495.79 454L450.733 402Z" fill="#FAAA92"/>
<path d="M450.733 402V420L447.229 434.5L443.224 450L439.219 461.5L428.205 482L416.69 505L424.7 501.5L433.712 500H450.733L464.751 501.5L482.273 507.5L450.733 402Z" fill="#FCBD9A"/>
<path d="M434.713 316.5L418.192 356L414.687 364L413.186 392.5L411.684 421V464V506L416.69 505L419.694 499.5L422.698 493L429.206 480L437.216 466L440.72 459L443.224 450.5L451.234 422V402.5L444.225 368.5L434.713 316.5Z" fill="#FAAA92"/>
<path d="M414.687 364L401.671 386L389.155 409L364.624 454.5L357.114 468L349.104 482L342.095 496L335.587 512L349.104 506L362.121 501.5L377.14 500H391.158L401.671 501.5L411.684 506L414.687 364Z" fill="#FCBD9A"/>
<path d="M438.718 160L440.72 166.5L444.726 175.5L449.28 173.194L470.258 160.5L468.255 156.5L466.253 152.5L459.244 138L458.243 138L457.742 138.5L455.74 141.5L454.238 144L450.733 148.5L447.229 153L443.224 156.5L440.971 158.25L438.718 160Z" fill="#ED7BA4"/>
<path d="M548.357 245L519.821 211L494.789 228.5L502.799 239.5L515.315 254L536.842 278.5L566.881 290.5L598.921 300L586.405 287.5L573.889 274L548.357 245Z" fill="#BD509B"/>
<path d="M629.961 317L598.921 300L568.382 291L537.844 279L547.856 291L559.371 302L570.886 313L582.4 322.5L591.912 329.5L602.426 336L612.438 340.5L621.95 343H633.465H638.972L643.478 341.5L648.985 339.5L653.991 335.5L658.497 330.5L659.999 327.5L661 324L653.991 323.5L648.985 322.5L643.478 321.5L635.968 319L629.961 317Z" fill="#8F418D"/>
<path d="M444.725 175.5L437.216 180.5L430.207 186.5L423.699 192.5L417.691 199L411.183 205.5L405.676 212.5L399.668 220L395.663 227L429.206 244L444.725 175.5Z" fill="#BD509B"/>
<path d="M335.587 316.5L396.164 281.5L429.206 244L395.663 227L379.142 249L364.123 271.5L349.605 293.5L342.095 304.5L335.587 316.5Z" fill="#ED7BA4"/>
<path d="M396.164 281.5L335.587 316.5L332.083 321.5L315.061 355.5L310.055 369.5L309.053 380.5L309.053 386L311.056 391L313.559 394L319.567 394.5L324.072 389L327.076 384L334.085 370.5L339.091 360L345.099 346L396.164 281.5Z" fill="#8F418D"/>
<path d="M329.418 8L329.919 11L330.92 13L331.921 11L332.422 8L334.424 5L336.928 3L340.432 1L343.936 0H351.947L356.452 1L358.956 2.5L361.459 5L363.461 8L364.963 11L365.964 14.5L366.465 18L366.966 21.5L367.466 25.5L343.436 33.5L330.92 39L317.403 33.5L294.374 25.5L293.873 22L294.374 18L295.375 14L296.877 10L299.38 6L301.382 4L303.886 2L309.393 0H316.402L321.408 1L324.412 3L326.414 5L329.418 8Z" fill="#ED7BA4"/>
<path d="M294.374 25.5L313.398 31.5L322.409 35L330.92 39L308.892 53L305.888 51L302.884 48L300.882 44.5L298.879 41L297.377 38.5L295.875 35L294.874 30.5L294.374 25.5Z" fill="#BD509B"/>
<path d="M367.466 25.5L348.442 31.5L339.431 35L330.92 39L352.948 53L355.952 51L358.956 48L360.958 44.5L362.961 41L364.463 38.5L365.964 35L366.966 30.5L367.466 25.5Z" fill="#BD509B"/>
<path d="M330.92 92L326.915 80.5L321.909 71L315.901 61.5L308.892 53.0001L330.92 39L352.948 53L346.44 61.5L339.931 71L335.426 80.5L330.92 92Z" fill="#8F418D"/>
</svg>
