<svg width="350" height="510.5" viewBox="4.0 0.0 354 510.5" fill="none" xmlns="http://www.w3.org/2000/svg">
<path d="M215.273 133L218.277 132H235.299H240.305L244.811 133L250.318 135L253.822 136L256.826 137L262.333 137.5V141L260.831 144.5L258.328 149L255.324 153.5L253.321 156.5L250.818 158.5L247.314 159.5L243.809 160H238.803H234.297L230.292 159.5L226.287 158.5L224.285 156L221.781 153.5L219.779 151.5L217.776 149.5L215.273 147L208.765 140.5L205.26 135.5L206.262 135L209.766 134.5L215.273 133Z" fill="#46ACCA"/>
<path d="M245.311 117L250.318 113L254.323 108L257.827 102.5L261.332 95L262.333 117L263.835 119.5L265.337 121.5L266.839 122.5L268.341 123.5L268.841 125L268.341 126.5L266.839 127.5L264.335 130L263.334 131V136L262.333 137.5L256.826 137L253.822 136L251.82 135.5L249.316 135L247.314 134L244.811 133L240.305 132.5L235.299 132H218.277L222.783 129.5L225.286 128.5L227.789 127.5L231.294 126.5L233.296 125.25L235.299 124.5L236.801 123.5L237.802 123L238.803 122.5L240.305 121.5L241.807 120.5L243.309 119L245.311 117Z" fill="#46ACCA"/>
<path d="M160.704 105.5L185.736 106L194.747 107.5L203.258 110L208.765 113L213.771 117L214.773 123L215.273 125.5L213.771 127L208.765 130L203.759 132L198.752 134L192.745 136L188.239 137H180.229L177.726 134.5L173.72 130L169.715 125.5L166.211 119.5L163.207 113.5L160.704 105.5Z" fill="#102B4C"/>
<path d="M233.296 101L238.803 95.5L244.811 90.5L253.321 82L255.825 79.5L258.828 77L260.831 76L263.334 75.5V82.701L261.832 87L258.828 93L256.826 97L254.823 100.5L251.82 104.5L248.816 108L246.813 110L244.31 112L240.305 115.5L235.799 118.5L231.294 120.5L226.788 122.5L223.283 124L218.778 125.5L213.771 127L214.272 122.5L213.771 117.5L218.277 115.5L221.281 112.5L224.785 109L233.296 101Z" fill="#1B3C67"/>
<path d="M232.295 74L234.798 58.5L238.803 43L246.313 48L253.321 55L257.327 60L259.83 64.5L261.832 69L263.334 74V75V75.5L260.831 76L258.828 77L255.324 80L248.315 87L244.811 90.5L240.806 94L231.794 102.5L223.784 110L219.779 114L218.277 115.5L213.771 117.5L215.774 114L217.776 111L221.281 106L222.783 103L223.784 100L224.785 97L225.787 94L227.789 88L229.792 81L231.294 77L231.794 75.5L232.295 74Z" fill="#256A93"/>
<path d="M188.239 90L192.244 86L196.249 83L200.755 79.5L205.26 77L212.77 75L216.274 74H218.778H232.295L230.292 80.5L228.79 86L227.789 89L226.788 92L224.785 97.5L222.783 103.5L219.779 108.5L217.276 112L214.773 116L213.771 117.5L211.268 115L207.764 112.5L204.259 111L191.243 107L188.239 106.5L175.222 106L160.704 105.5L188.239 90Z" fill="#1B3C67"/>
<path d="M167.713 73L233.797 47.5L229.792 52.5L224.785 57.5L214.773 67.5L205.26 77L199.753 80.5L194.247 85L188.74 90L178.727 96L160.704 105.5L159.703 100V97.5L160.203 95L160.704 92.5L161.705 89.5L162.206 87L163.207 84L164.208 81L164.959 79L165.71 77L167.212 73H167.713Z" fill="#256A93"/>
<path d="M222.282 60L230.292 51.5L233.797 47.5L167.713 73H167.212L169.215 68.5L171.217 64L174.221 59.5L176.724 56L179.728 52.5L183.233 49L186.737 46L190.742 43.5L194.747 41.5L199.253 39.5L204.76 38L208.264 37.5L213.771 37H218.778L223.784 37.5L227.789 38L231.294 39L233.797 40L235.799 41L237.301 42L238.803 43L235.299 59.5L232.295 74H217.776L210.267 76L205.261 77L210.267 72L222.282 60Z" fill="#46ACCA"/>
<path d="M147.687 127L159.703 117.5L161.205 121L163.207 124L165.21 127.5L167.212 131L169.715 134L170.717 136L170.216 138.5L169.715 141L168.213 144L166.712 147.5L165.21 150L162.707 155.5L159.202 160L148.188 150L140.679 144.5L131.166 138L147.687 127Z" fill="#1B3C67"/>
<path d="M129.164 151V146.5V140L131.166 138L149.189 150L159.202 160L154.196 167.5L149.69 173L144.183 179.5L136.673 186.5L129.164 193L121.654 198.5L120.152 199.5L122.155 186.5L124.658 175L126.661 163L129.164 151Z" fill="#102B4C"/>
<path d="M102.13 160L129.164 140V151L128.663 156L125.659 171.5L124.158 179L122.155 187L120.152 199.5L116.147 202.5L111.141 205.5L100.628 211L87.1106 216L84.1067 216.5H81.1029V215L86.1093 210L90.1144 205L93.6188 199L96.6226 192L99.1258 185L100.628 177L101.629 168L102.13 160Z" fill="#1B3C67"/>
<path d="M113.144 124.5L117.649 120L122.656 116L129.665 112L138.676 110L149.189 110.5L155.197 112.5L158.201 114.5L159.703 117.5L149.189 126.5L137.174 134L120.152 147.5L102.13 160L102.63 150.5L105.133 141L109.639 130.5L113.144 124.5Z" fill="#256A93"/>
<path d="M216.274 175.5L192.268 202.683L166.211 228.5L190.742 160.5L216.274 175.5Z" fill="#256A93"/>
<path d="M190.742 160.5L178.727 195L166.211 228.5L141.179 211L150.691 200.5L165.21 186L190.742 160.5Z" fill="#102B4C"/>
<path d="M216.274 175.5L212.77 195L206.762 214.5L202.757 228.5L198.252 239L197.751 240L192.244 247.5L177.225 269.5L156.699 295.5L160.203 264.5L166.211 228.5L175.723 218.5L192.244 202L216.274 175.5Z" fill="#102B4C"/>
<path d="M216.274 175.5L223.283 206L226.788 220L228.79 229L230.292 235.5L231.794 244L198.252 239L202.257 229L212.269 196L216.274 175.5Z" fill="#46ACCA"/>
<path d="M198.252 239L231.794 244L197.751 296.5L175.222 333L162.206 351L149.189 367L149.69 362L150.128 358L151.442 348.75L153.194 331L156.699 295.5L198.252 239Z" fill="#1B3C67"/>
<path d="M171.217 338L200.755 291L226.287 252.5L231.794 244L225.787 322.5L205.761 352L125.159 498L144.183 431L171.217 338Z" fill="#256A93"/>
<path d="M171.217 338.5L139.177 449L128.663 486L124.158 501.5L118.651 498.5L113.144 495.5L101.128 489L90.1144 483L80.1017 476.5L125.659 407.5L147.187 369.5L171.217 338.5Z" fill="#46ACCA"/>
<path d="M157.2 292.5L149.69 366L137.675 371.5L124.533 376.375L99.3761 386.75L74.5947 398L44.0559 409.5L76.0966 381.5L104.132 352.5L129.79 323.5L143.182 308L149.69 300L157.2 292.5Z" fill="#102B4C"/>
<path d="M137.675 371.5L149.69 366L109.639 399.5L90.1145 416.5L67.4717 431.532L39.0497 449L32.5413 443.5L25.5324 437.5L18.5235 430.5L13.5171 423.5L29.0369 416.5L44.0559 409.5L64.5821 401L94.1196 389L122.656 377L137.675 371.5Z" fill="#1B3C67"/>
<path d="M149.69 366L149.189 367L147.187 369.5L131.166 398L116.648 423L80.1017 476.5L58.5743 463.5L39.0495 449L57.0724 438L90.615 416L116.648 393L148.188 367L149.69 366Z" fill="#256A93"/>
<path d="M225.286 323.5L221.781 342L217.776 364L210.267 402L200.254 414.5L185.736 431.5L164.709 455L124.158 501.5L125.159 498L173.22 411L196.75 367.5L205.26 352.5L207.764 349L216.775 333.5L225.286 323.5Z" fill="#46ACCA"/>
<path d="M210.267 402L178.727 507.5L165.71 510.5H151.693L137.675 507.5L124.158 501.5L165.21 454L210.267 402Z" fill="#79E9F1"/>
<path d="M210.267 402V420L213.771 434.5L217.776 450L221.781 461.5L232.795 482L244.31 505L236.3 501.5L227.288 500H210.267L196.249 501.5L178.727 507.5L210.267 402Z" fill="#A4EDEB"/>
<path d="M226.287 316.5L242.808 356L246.313 364L247.814 392.5L249.316 421V464V506L244.31 505L241.306 499.5L238.302 493L231.794 480L223.784 466L220.28 459L217.776 450.5L209.766 422V402.5L216.775 368.5L226.287 316.5Z" fill="#79E9F1"/>
<path d="M246.313 364L259.329 386L271.845 409L296.376 454.5L303.886 468L311.896 482L318.905 496L325.413 512L311.896 506L298.879 501.5L283.86 500H269.842L259.329 501.5L249.316 506L246.313 364Z" fill="#A4EDEB"/>
<path d="M222.282 160L220.28 166.5L216.274 175.5L211.72 173.194L190.742 160.5L192.745 156.5L194.747 152.5L201.756 138L202.757 138L203.258 138.5L205.26 141.5L206.762 144L210.267 148.5L213.771 153L217.776 156.5L220.029 158.25L222.282 160Z" fill="#46ACCA"/>
<path d="M112.643 245L141.179 211L166.211 228.5L158.201 239.5L145.685 254L124.158 278.5L94.1195 290.5L62.0788 300L74.5947 287.5L87.1106 274L112.643 245Z" fill="#46ACCA"/>
<path d="M31.0394 317L62.0788 300L92.6175 291L123.156 279L113.144 291L101.629 302L90.1144 313L78.5997 322.5L69.0877 329.5L58.5743 336L48.5616 340.5L39.0496 343H27.5349H22.028L17.5222 341.5L12.0152 339.5L7.00889 335.5L2.50318 330.5L1.00127 327.5L0 324L7.00889 323.5L12.0152 322.5L17.5222 321.5L25.0318 319L31.0394 317Z" fill="#72D7EB"/>
<path d="M216.275 175.5L223.784 180.5L230.793 186.5L237.301 192.5L243.309 199L249.817 205.5L255.324 212.5L261.332 220L265.337 227L231.794 244L216.275 175.5Z" fill="#72D7EB"/>
<path d="M325.413 316.5L264.836 281.5L231.794 244L265.337 227L281.858 249L296.877 271.5L311.395 293.5L318.905 304.5L325.413 316.5Z" fill="#79E9F1"/>
<path d="M264.836 281.5L325.413 316.5L328.917 321.5L345.939 355.5L350.945 369.5L351.947 380.5L351.947 386L349.944 391L347.441 394L341.433 394.5L336.928 389L333.924 384L326.915 370.5L321.909 360L315.901 346L264.836 281.5Z" fill="#46ACCA"/>
</svg>
