<svg width="355.413" height="475" viewBox="305.587 37 325.413 475" fill="none" xmlns="http://www.w3.org/2000/svg">
<path d="M445.727 133L442.723 132H425.701H420.695L416.189 133L410.682 135L407.178 136L404.174 137L398.667 137.5V141L400.169 144.5L402.672 149L405.676 153.5L407.679 156.5L410.182 158.5L413.686 159.5L417.191 160H422.197H426.703L430.708 159.5L434.713 158.5L436.715 156L439.219 153.5L441.221 151.5L443.224 149.5L445.727 147L452.235 140.5L455.74 135.5L454.738 135L451.234 134.5L445.727 133Z" fill="#ED7BA4"/>
<path d="M415.689 117L410.682 113L406.677 108L403.173 102.5L399.668 95L398.667 117L397.165 119.5L395.663 121.5L394.161 122.5L392.659 123.5L392.159 125L392.659 126.5L394.161 127.5L396.665 130L397.666 131V136L398.667 137.5L404.174 137L407.178 136L409.18 135.5L411.684 135L413.686 134L416.189 133L420.695 132.5L425.701 132H442.723L438.217 129.5L435.714 128.5L433.211 127.5L429.706 126.5L427.704 125.25L425.701 124.5L424.199 123.5L423.198 123L422.197 122.5L420.695 121.5L419.193 120.5L417.691 119L415.689 117Z" fill="#ED7BA4"/>
<path d="M500.296 105.5L475.264 106L466.253 107.5L457.742 110L452.235 113L447.229 117L446.227 123L445.727 125.5L447.229 127L452.235 130L457.241 132L462.248 134L468.255 136L472.761 137H480.771L483.274 134.5L487.28 130L491.285 125.5L494.789 119.5L497.793 113.5L500.296 105.5Z" fill="#EB897A"/>
<path d="M427.704 101L422.197 95.5L416.189 90.5L407.679 82L405.175 79.5L402.172 77L400.169 76L397.666 75.5V82.701L399.168 87L402.172 93L404.174 97L406.177 100.5L409.18 104.5L412.184 108L414.187 110L416.69 112L420.695 115.5L425.201 118.5L429.706 120.5L434.212 122.5L437.717 124L442.222 125.5L447.229 127L446.728 122.5L447.229 117.5L442.723 115.5L439.719 112.5L436.215 109L427.704 101Z" fill="#EB897A"/>
<path d="M428.705 74L426.202 58.5L422.197 43L414.687 48L407.679 55L403.673 60L401.17 64.5L399.168 69L397.666 74V75V75.5L400.169 76L402.172 77L405.676 80L412.685 87L416.189 90.5L420.194 94L429.206 102.5L437.216 110L441.221 114L442.723 115.5L447.229 117.5L445.226 114L443.224 111L439.719 106L438.217 103L437.216 100L436.215 97L435.213 94L433.211 88L431.208 81L429.706 77L429.206 75.5L428.705 74Z" fill="#EB897A"/>
<path d="M472.761 90L468.756 86L464.751 83L460.245 79.5L455.74 77L448.23 75L444.726 74H442.222H428.705L430.708 80.5L432.21 86L433.211 89L434.212 92L436.215 97.5L438.217 103.5L441.221 108.5L443.724 112L446.227 116L447.229 117.5L449.732 115L453.236 112.5L456.741 111L469.757 107L472.761 106.5L485.778 106L500.296 105.5L472.761 90Z" fill="#FAAA92"/>
<path d="M493.287 73L427.203 47.5L431.208 52.5L436.215 57.5L446.227 67.5L455.74 77L461.246 80.5L466.753 85L472.26 90L482.273 96L500.296 105.5L501.297 100V97.5L500.797 95L500.296 92.5L499.295 89.5L498.794 87L497.793 84L496.792 81L496.041 79L495.29 77L493.788 73H493.287Z" fill="#FAAA92"/>
<path d="M438.718 60L430.708 51.5L427.203 47.5L493.287 73H493.788L491.785 68.5L489.783 64L486.779 59.5L484.276 56L481.272 52.5L477.767 49L474.263 46L470.258 43.5L466.253 41.5L461.747 39.5L456.24 38L452.736 37.5L447.229 37H442.222L437.216 37.5L433.211 38L429.706 39L427.203 40L425.201 41L423.699 42L422.197 43L425.701 59.5L428.705 74H443.224L450.733 76L455.74 77L450.733 72L438.718 60Z" fill="#FCBD9A"/>
<path d="M513.313 127L501.297 117.5L499.795 121L497.793 124L495.79 127.5L493.788 131L491.285 134L490.283 136L490.784 138.5L491.285 141L492.787 144L494.288 147.5L495.79 150L498.294 155.5L501.798 160L512.812 150L520.321 144.5L529.834 138L513.313 127Z" fill="#FAAA92"/>
<path d="M531.836 151V146.5V140L529.834 138L511.811 150L501.798 160L506.804 167.5L511.31 173L516.817 179.5L524.327 186.5L531.836 193L539.346 198.5L540.848 199.5L538.845 186.5L536.342 175L534.339 163L531.836 151Z" fill="#FCBD9A"/>
<path d="M558.87 160L531.836 140V151L532.337 156L535.341 171.5L536.842 179L538.845 187L540.848 199.5L544.853 202.5L549.859 205.5L560.372 211L573.889 216L576.893 216.5H579.897V215L574.891 210L570.886 205L567.381 199L564.377 192L561.874 185L560.372 177L559.371 168L558.87 160Z" fill="#FAAA92"/>
<path d="M547.856 124.5L543.351 120L538.344 116L531.335 112L522.324 110L511.811 110.5L505.803 112.5L502.799 114.5L501.297 117.5L511.811 126.5L523.826 134L540.848 147.5L558.87 160L558.37 150.5L555.867 141L551.361 130.5L547.856 124.5Z" fill="#EB897A"/>
<path d="M444.726 175.5L468.732 202.683L494.789 228.5L470.258 160.5L444.726 175.5Z" fill="#BD509B"/>
<path d="M470.258 160.5L482.273 195L494.789 228.5L519.821 211L510.309 200.5L495.79 186L470.258 160.5Z" fill="#5A2C6C"/>
<path d="M444.726 175.5L448.23 195L454.238 214.5L458.243 228.5L462.748 239L463.249 240L468.756 247.5L483.775 269.5L504.301 295.5L500.797 264.5L494.789 228.5L485.277 218.5L468.756 202L444.726 175.5Z" fill="#5A2C6C"/>
<path d="M444.726 175.5L437.717 206L434.212 220L432.21 229L430.708 235.5L429.206 244L462.748 239L458.743 229L448.731 196L444.726 175.5Z" fill="#ED7BA4"/>
<path d="M462.748 239L429.206 244L463.249 296.5L485.778 333L498.794 351L511.811 367L511.31 362L510.872 358L509.558 348.75L507.806 331L504.301 295.5L462.748 239Z" fill="#BD509B"/>
<path d="M489.783 338L460.245 291L434.713 252.5L429.206 244L435.213 322.5L455.239 352L535.841 498L516.817 431L489.783 338Z" fill="#8F418D"/>
<path d="M489.783 338.5L521.823 449L532.337 486L536.842 501.5L542.349 498.5L547.856 495.5L559.872 489L570.886 483L580.898 476.5L535.341 407.5L513.813 369.5L489.783 338.5Z" fill="#ED7BA4"/>
<path d="M503.801 292.5L511.31 366L523.325 371.5L536.467 376.375L561.624 386.75L586.405 398L616.944 409.5L584.903 381.5L556.868 352.5L531.21 323.5L517.818 308L511.31 300L503.801 292.5Z" fill="#5A2C6C"/>
<path d="M523.325 371.5L511.31 366L551.361 399.5L570.886 416.5L593.528 431.532L621.95 449L628.459 443.5L635.468 437.5L642.477 430.5L647.483 423.5L631.963 416.5L616.944 409.5L596.418 401L566.88 389L538.344 377L523.325 371.5Z" fill="#8F418D"/>
<path d="M511.31 366L511.811 367L513.813 369.5L529.834 398L544.352 423L580.898 476.5L602.426 463.5L621.95 449L603.928 438L570.385 416L544.352 393L512.812 367L511.31 366Z" fill="#BD509B"/>
<path d="M435.714 323.5L439.219 342L443.224 364L450.733 402L460.746 414.5L475.264 431.5L496.291 455L536.842 501.5L535.841 498L487.78 411L464.25 367.5L455.74 352.5L453.236 349L444.225 333.5L435.714 323.5Z" fill="#ED7BA4"/>
<path d="M450.733 402L482.273 507.5L495.29 510.5H509.307L523.325 507.5L536.842 501.5L495.79 454L450.733 402Z" fill="#FAAA92"/>
<path d="M450.733 402V420L447.229 434.5L443.224 450L439.219 461.5L428.205 482L416.69 505L424.7 501.5L433.712 500H450.733L464.751 501.5L482.273 507.5L450.733 402Z" fill="#FCBD9A"/>
<path d="M434.713 316.5L418.192 356L414.687 364L413.186 392.5L411.684 421V464V506L416.69 505L419.694 499.5L422.698 493L429.206 480L437.216 466L440.72 459L443.224 450.5L451.234 422V402.5L444.225 368.5L434.713 316.5Z" fill="#FAAA92"/>
<path d="M414.687 364L401.671 386L389.155 409L364.624 454.5L357.114 468L349.104 482L342.095 496L335.587 512L349.104 506L362.121 501.5L377.14 500H391.158L401.671 501.5L411.684 506L414.687 364Z" fill="#FCBD9A"/>
<path d="M438.718 160L440.72 166.5L444.726 175.5L449.28 173.194L470.258 160.5L468.255 156.5L466.253 152.5L459.244 138L458.243 138L457.742 138.5L455.74 141.5L454.238 144L450.733 148.5L447.229 153L443.224 156.5L440.971 158.25L438.718 160Z" fill="#ED7BA4"/>
<path d="M548.357 245L519.821 211L494.789 228.5L502.799 239.5L515.315 254L536.842 278.5L566.881 290.5L598.921 300L586.405 287.5L573.889 274L548.357 245Z" fill="#BD509B"/>
<path d="M629.961 317L598.921 300L568.382 291L537.844 279L547.856 291L559.371 302L570.886 313L582.4 322.5L591.912 329.5L602.426 336L612.438 340.5L621.95 343H633.465H638.972L643.478 341.5L648.985 339.5L653.991 335.5L658.497 330.5L659.999 327.5L661 324L653.991 323.5L648.985 322.5L643.478 321.5L635.968 319L629.961 317Z" fill="#8F418D"/>
<path d="M444.725 175.5L437.216 180.5L430.207 186.5L423.699 192.5L417.691 199L411.183 205.5L405.676 212.5L399.668 220L395.663 227L429.206 244L444.725 175.5Z" fill="#BD509B"/>
<path d="M335.587 316.5L396.164 281.5L429.206 244L395.663 227L379.142 249L364.123 271.5L349.605 293.5L342.095 304.5L335.587 316.5Z" fill="#ED7BA4"/>
<path d="M396.164 281.5L335.587 316.5L332.083 321.5L315.061 355.5L310.055 369.5L309.053 380.5L309.053 386L311.056 391L313.559 394L319.567 394.5L324.072 389L327.076 384L334.085 370.5L339.091 360L345.099 346L396.164 281.5Z" fill="#8F418D"/>
</svg>
